<svg width="1200" height="630" viewBox="0 0 1200 630" xmlns="http://www.w3.org/2000/svg">
  <defs>
    <linearGradient id="bg" x1="0" y1="0" x2="1" y2="1">
      <stop offset="0%" stop-color="#0e1524"/>
      <stop offset="100%" stop-color="#182338"/>
    </linearGradient>
    <linearGradient id="accent" x1="0" y1="0" x2="1" y2="0">
      <stop offset="0%" stop-color="#10b981"/>
      <stop offset="100%" stop-color="#f43f5e"/>
    </linearGradient>
  </defs>

  <rect width="1200" height="630" fill="url(#bg)"/>

  <!-- subtle grid dots -->
  <g opacity="0.08">
    <path d="M0 120 H1200" stroke="#ffffff" stroke-width="1"/>
    <path d="M0 510 H1200" stroke="#ffffff" stroke-width="1"/>
  </g>

  <!-- top accent bar -->
  <rect x="0" y="0" width="1200" height="6" fill="url(#accent)"/>

  <!-- clock/queue mark -->
  <g transform="translate(96,205)">
    <circle cx="60" cy="60" r="58" fill="none" stroke="#10b981" stroke-width="6"/>
    <path d="M60 24 V60 L86 78" fill="none" stroke="#10b981" stroke-width="6" stroke-linecap="round" stroke-linejoin="round"/>
    <circle cx="60" cy="60" r="4" fill="#10b981"/>
  </g>

  <g transform="translate(96,340)" font-family="ui-monospace,SFMono-Regular,Menlo,Consolas,monospace" font-size="22" fill="#8a96ad">
    <rect x="0" y="0" width="14" height="14" rx="3" fill="#f43f5e"/>
    <rect x="24" y="0" width="14" height="14" rx="3" fill="#f43f5e" opacity="0.6"/>
    <rect x="48" y="0" width="14" height="14" rx="3" fill="#f43f5e" opacity="0.3"/>
  </g>

  <text x="94" y="150" font-family="ui-monospace,SFMono-Regular,Menlo,Consolas,monospace" font-size="30" fill="#8a96ad" letter-spacing="2">GO</text>

  <text x="94" y="470" font-family="-apple-system,BlinkMacSystemFont,'Segoe UI',Helvetica,Arial,sans-serif" font-size="86" font-weight="700" fill="#ffffff">chronos<tspan fill="#10b981">-go</tspan></text>

  <text x="96" y="530" font-family="-apple-system,BlinkMacSystemFont,'Segoe UI',Helvetica,Arial,sans-serif" font-size="30" fill="#c3cad9">Redis-backed distributed task queue &amp; scheduler for Go</text>

  <rect x="96" y="558" width="900" height="2" fill="#ffffff" opacity="0.12"/>

  <text x="96" y="595" font-family="ui-monospace,SFMono-Regular,Menlo,Consolas,monospace" font-size="22" fill="#66708a">chronos-go.advenoh.pe.kr</text>
</svg>
